<svg width="512" height="512" viewBox="0 0 512 512" fill="none" xmlns="http://www.w3.org/2000/svg">
  <rect width="512" height="512" rx="96" fill="#050d1a"/>
  <g transform="translate(256, 256) scale(1.9) translate(-311, -88)">
    <path d="M227.897 77.1942C227.897 167.812 347.873 178.887 394.25 107.4C377.78 161.434 327.037 175.53 304.52 175.53C174.124 175.53 179.84 0 282.34 0C381.143 4.6987 362.324 142.975 276.291 116.125L272.594 66.453L299.143 54.3706L296.118 97.3301C321.66 97.3301 327.037 74.5079 327.037 62.7625C327.037 43.4747 307.052 23.4437 285.028 22.3396C257.999 20.9844 227.897 43.7202 227.897 77.1942Z" fill="url(#grad1)"/>
    <path d="M270.911 41.9526L272.594 61.4187L299.143 48.3294V41.9526H270.911Z" fill="url(#grad2)"/>
  </g>
  <defs>
    <linearGradient id="grad1" x1="228" y1="17" x2="368" y2="153" gradientUnits="userSpaceOnUse">
      <stop stop-color="#01FFFF"/>
      <stop offset="1" stop-color="#001FFE"/>
    </linearGradient>
    <linearGradient id="grad2" x1="228" y1="17" x2="368" y2="153" gradientUnits="userSpaceOnUse">
      <stop stop-color="#01FFFF"/>
      <stop offset="1" stop-color="#001FFE"/>
    </linearGradient>
  </defs>
</svg>
