<svg width="600" height="308" viewBox="0 0 600 308" fill="none" xmlns="http://www.w3.org/2000/svg">
<path d="M9.52402 201.998C6.79232 201.998 4.50361 201.149 2.65787 199.451C0.885955 197.679 0 195.501 0 192.917C0 190.333 0.885955 188.192 2.65787 186.494C4.50361 184.722 6.79232 183.836 9.52402 183.836C12.2557 183.836 14.5075 184.722 16.2794 186.494C18.1252 188.192 19.048 190.333 19.048 192.917C19.048 195.501 18.1252 197.679 16.2794 199.451C14.5075 201.149 12.2557 201.998 9.52402 201.998ZM17.1654 209.307V270.659H1.66117V209.307H17.1654Z" fill="#051B4D"/>
<path d="M66.4821 208.421C73.7912 208.421 79.6976 210.747 84.2012 215.398C88.7048 219.975 90.9566 226.398 90.9566 234.667V270.659H75.4524V236.772C75.4524 231.899 74.2342 228.17 71.7978 225.586C69.3615 222.928 66.0391 221.6 61.8309 221.6C57.5487 221.6 54.1526 222.928 51.6424 225.586C49.206 228.17 47.9878 231.899 47.9878 236.772V270.659H32.4836V209.307H47.9878V216.948C50.055 214.29 52.676 212.223 55.8507 210.747C59.0992 209.196 62.643 208.421 66.4821 208.421Z" fill="#051B4D"/>
<path d="M123.752 222.043V251.722C123.752 253.789 124.232 255.303 125.191 256.263C126.225 257.148 127.923 257.591 130.286 257.591H137.484V270.659H127.738C114.671 270.659 108.137 264.31 108.137 251.611V222.043H100.828V209.307H108.137V194.135H123.752V209.307H137.484V222.043H123.752Z" fill="#051B4D"/>
<path d="M205.669 238.654C205.669 240.869 205.521 242.862 205.226 244.634H160.374C160.743 249.064 162.294 252.534 165.026 255.044C167.757 257.555 171.117 258.81 175.103 258.81C180.862 258.81 184.96 256.336 187.396 251.39H204.118C202.346 257.296 198.95 262.169 193.93 266.008C188.909 269.773 182.745 271.656 175.436 271.656C169.529 271.656 164.213 270.364 159.488 267.78C154.837 265.122 151.183 261.394 148.525 256.595C145.941 251.796 144.649 246.259 144.649 239.983C144.649 233.634 145.941 228.06 148.525 223.261C151.109 218.462 154.726 214.77 159.378 212.186C164.029 209.602 169.382 208.31 175.436 208.31C181.268 208.31 186.473 209.565 191.051 212.076C195.702 214.586 199.283 218.166 201.793 222.818C204.377 227.395 205.669 232.674 205.669 238.654ZM189.611 234.224C189.537 230.238 188.097 227.063 185.292 224.7C182.486 222.264 179.053 221.046 174.993 221.046C171.153 221.046 167.905 222.227 165.247 224.59C162.663 226.878 161.076 230.09 160.485 234.224H189.611Z" fill="#051B4D"/>
<path d="M232.49 218.831C234.483 215.582 237.067 213.035 240.242 211.19C243.49 209.344 247.182 208.421 251.316 208.421V224.7H247.219C242.346 224.7 238.654 225.845 236.144 228.133C233.708 230.422 232.49 234.409 232.49 240.094V270.659H216.985V209.307H232.49V218.831Z" fill="#051B4D"/>
<path d="M257.772 239.762C257.772 233.56 258.99 228.06 261.427 223.261C263.937 218.462 267.296 214.77 271.505 212.186C275.787 209.602 280.549 208.31 285.791 208.31C290.368 208.31 294.355 209.233 297.751 211.079C301.221 212.925 303.99 215.25 306.057 218.056V209.307H321.672V270.659H306.057V261.689C304.063 264.568 301.295 266.968 297.751 268.887C294.281 270.733 290.257 271.656 285.68 271.656C280.512 271.656 275.787 270.327 271.505 267.669C267.296 265.011 263.937 261.283 261.427 256.484C258.99 251.611 257.772 246.037 257.772 239.762ZM306.057 239.983C306.057 236.218 305.319 233.006 303.842 230.348C302.365 227.617 300.372 225.549 297.862 224.147C295.352 222.67 292.657 221.932 289.777 221.932C286.898 221.932 284.24 222.633 281.804 224.036C279.367 225.439 277.374 227.506 275.824 230.238C274.347 232.895 273.609 236.07 273.609 239.762C273.609 243.453 274.347 246.702 275.824 249.507C277.374 252.239 279.367 254.343 281.804 255.82C284.314 257.296 286.972 258.034 289.777 258.034C292.657 258.034 295.352 257.333 297.862 255.93C300.372 254.454 302.365 252.386 303.842 249.729C305.319 246.997 306.057 243.748 306.057 239.983Z" fill="#051B4D"/>
<path d="M332.828 239.983C332.828 233.634 334.12 228.097 336.704 223.371C339.288 218.573 342.868 214.881 347.446 212.297C352.023 209.639 357.265 208.31 363.172 208.31C370.776 208.31 377.052 210.23 381.998 214.069C387.019 217.834 390.378 223.15 392.076 230.016H375.353C374.467 227.358 372.954 225.291 370.813 223.814C368.746 222.264 366.162 221.489 363.061 221.489C358.631 221.489 355.124 223.113 352.54 226.362C349.956 229.536 348.664 234.077 348.664 239.983C348.664 245.816 349.956 250.356 352.54 253.605C355.124 256.779 358.631 258.367 363.061 258.367C369.336 258.367 373.434 255.561 375.353 249.95H392.076C390.378 256.595 387.019 261.874 381.998 265.787C376.978 269.7 370.702 271.656 363.172 271.656C357.265 271.656 352.023 270.364 347.446 267.78C342.868 265.122 339.288 261.431 336.704 256.706C334.12 251.907 332.828 246.332 332.828 239.983Z" fill="#051B4D"/>
<path d="M421.485 222.043V251.722C421.485 253.789 421.965 255.303 422.925 256.263C423.959 257.148 425.657 257.591 428.019 257.591H435.218V270.659H425.472C412.404 270.659 405.87 264.31 405.87 251.611V222.043H398.561V209.307H405.87V194.135H421.485V209.307H435.218V222.043H421.485Z" fill="#051B4D"/>
<path d="M514.002 271.656L497.279 245.631L482.107 271.656H464.61L488.973 232.674L464.277 194.356H482.107L498.83 220.271L513.891 194.356H531.388L507.135 233.228L531.831 271.656H514.002Z" fill="url(#paint0_linear_54_985)"/>
<path d="M600 218.277C600 222.412 599.003 226.288 597.01 229.905C595.09 233.523 592.026 236.439 587.818 238.654C583.683 240.869 578.442 241.977 572.092 241.977H559.135V271.656H543.631V194.356H572.092C578.072 194.356 583.167 195.39 587.375 197.457C591.583 199.525 594.721 202.367 596.788 205.985C598.929 209.602 600 213.7 600 218.277ZM571.428 229.462C575.71 229.462 578.885 228.503 580.952 226.583C583.019 224.59 584.053 221.821 584.053 218.277C584.053 210.747 579.844 206.981 571.428 206.981H559.135V229.462H571.428Z" fill="url(#paint1_linear_54_985)"/>
<path d="M6.30747 287.583V307.315H3.91797V287.583H6.30747Z" fill="#131A2E"/>
<path d="M32.1724 287.583V307.315H29.8599L19.1072 291.822H18.9145V307.315H16.525V287.583H18.8374L29.6287 303.115H29.8214V287.583H32.1724Z" fill="#131A2E"/>
<path d="M41.3011 289.702V287.583H56.1006V289.702H49.8956V307.315H47.5061V289.702H41.3011Z" fill="#131A2E"/>
<path d="M65.2149 307.315V287.583H77.1238V289.702H67.6044V296.37H76.5072V298.49H67.6044V305.196H77.278V307.315H65.2149Z" fill="#131A2E"/>
<path d="M86.8572 307.315V287.583H93.5247C95.0663 287.583 96.3317 287.846 97.3209 288.373C98.3101 288.893 99.0424 289.609 99.5177 290.521C99.993 291.434 100.231 292.471 100.231 293.634C100.231 294.796 99.993 295.827 99.5177 296.726C99.0424 297.626 98.3133 298.332 97.3305 298.846C96.3477 299.354 95.092 299.607 93.5632 299.607H88.1676V297.449H93.4861C94.5396 297.449 95.3875 297.295 96.0298 296.987C96.6786 296.678 97.1475 296.241 97.4365 295.676C97.732 295.105 97.8797 294.424 97.8797 293.634C97.8797 292.844 97.732 292.153 97.4365 291.562C97.141 290.971 96.6689 290.515 96.0202 290.194C95.3714 289.866 94.5139 289.702 93.4476 289.702H89.2467V307.315H86.8572ZM96.1454 298.451L101.001 307.315H98.2266L93.4476 298.451H96.1454Z" fill="#131A2E"/>
<path d="M121.617 289.702V287.583H136.417V289.702H130.212V307.315H127.822V289.702H121.617Z" fill="#131A2E"/>
<path d="M145.531 307.315V287.583H157.44V289.702H147.92V296.37H156.823V298.49H147.92V305.196H157.594V307.315H145.531Z" fill="#131A2E"/>
<path d="M183.052 293.749H180.662C180.521 293.062 180.274 292.458 179.92 291.938C179.574 291.418 179.15 290.981 178.649 290.627C178.154 290.268 177.605 289.998 177.001 289.818C176.397 289.638 175.768 289.548 175.113 289.548C173.918 289.548 172.836 289.85 171.866 290.454C170.902 291.058 170.134 291.947 169.563 293.123C168.998 294.298 168.715 295.74 168.715 297.449C168.715 299.158 168.998 300.6 169.563 301.775C170.134 302.951 170.902 303.84 171.866 304.444C172.836 305.048 173.918 305.35 175.113 305.35C175.768 305.35 176.397 305.26 177.001 305.08C177.605 304.9 178.154 304.634 178.649 304.28C179.15 303.921 179.574 303.481 179.92 302.96C180.274 302.434 180.521 301.83 180.662 301.149H183.052C182.872 302.157 182.544 303.06 182.069 303.856C181.594 304.653 181.003 305.331 180.296 305.889C179.59 306.442 178.796 306.863 177.916 307.152C177.043 307.441 176.108 307.585 175.113 307.585C173.43 307.585 171.933 307.174 170.623 306.352C169.312 305.53 168.281 304.361 167.53 302.845C166.778 301.329 166.402 299.53 166.402 297.449C166.402 295.368 166.778 293.569 167.53 292.053C168.281 290.538 169.312 289.368 170.623 288.546C171.933 287.724 173.43 287.313 175.113 287.313C176.108 287.313 177.043 287.458 177.916 287.747C178.796 288.036 179.59 288.46 180.296 289.018C181.003 289.571 181.594 290.245 182.069 291.042C182.544 291.832 182.872 292.734 183.052 293.749Z" fill="#131A2E"/>
<path d="M192.34 307.315V287.583H194.729V296.37H205.251V287.583H207.64V307.315H205.251V298.49H194.729V307.315H192.34Z" fill="#131A2E"/>
<path d="M233.297 287.583V307.315H230.908V287.583H233.297Z" fill="#131A2E"/>
<path d="M259.162 287.583V307.315H256.85L246.097 291.822H245.904V307.315H243.515V287.583H245.827L256.619 303.115H256.811V287.583H259.162Z" fill="#131A2E"/>
<path d="M268.291 289.702V287.583H283.09V289.702H276.886V307.315H274.496V289.702H268.291Z" fill="#131A2E"/>
<path d="M292.205 307.315V287.583H304.114V289.702H294.594V296.37H303.497V298.49H294.594V305.196H304.268V307.315H292.205Z" fill="#131A2E"/>
<path d="M313.847 307.315V287.583H320.515C322.056 287.583 323.322 287.846 324.311 288.373C325.3 288.893 326.032 289.609 326.508 290.521C326.983 291.434 327.221 292.471 327.221 293.634C327.221 294.796 326.983 295.827 326.508 296.726C326.032 297.626 325.303 298.332 324.32 298.846C323.338 299.354 322.082 299.607 320.553 299.607H315.157V297.449H320.476C321.529 297.449 322.377 297.295 323.02 296.987C323.668 296.678 324.137 296.241 324.426 295.676C324.722 295.105 324.87 294.424 324.87 293.634C324.87 292.844 324.722 292.153 324.426 291.562C324.131 290.971 323.659 290.515 323.01 290.194C322.361 289.866 321.504 289.702 320.437 289.702H316.237V307.315H313.847ZM323.135 298.451L327.991 307.315H325.216L320.437 298.451H323.135Z" fill="#131A2E"/>
<path d="M337.438 307.315H334.933L342.179 287.583H344.645L351.891 307.315H349.386L343.489 290.705H343.335L337.438 307.315ZM338.363 299.607H348.461V301.727H338.363V299.607Z" fill="#131A2E"/>
<path d="M375.342 293.749H372.953C372.811 293.062 372.564 292.458 372.211 291.938C371.864 291.418 371.44 290.981 370.939 290.627C370.444 290.268 369.895 289.998 369.291 289.818C368.687 289.638 368.058 289.548 367.403 289.548C366.208 289.548 365.126 289.85 364.156 290.454C363.192 291.058 362.425 291.947 361.853 293.123C361.288 294.298 361.005 295.74 361.005 297.449C361.005 299.158 361.288 300.6 361.853 301.775C362.425 302.951 363.192 303.84 364.156 304.444C365.126 305.048 366.208 305.35 367.403 305.35C368.058 305.35 368.687 305.26 369.291 305.08C369.895 304.9 370.444 304.634 370.939 304.28C371.44 303.921 371.864 303.481 372.211 302.96C372.564 302.434 372.811 301.83 372.953 301.149H375.342C375.162 302.157 374.835 303.06 374.359 303.856C373.884 304.653 373.293 305.331 372.586 305.889C371.88 306.442 371.087 306.863 370.207 307.152C369.333 307.441 368.398 307.585 367.403 307.585C365.72 307.585 364.223 307.174 362.913 306.352C361.602 305.53 360.571 304.361 359.82 302.845C359.068 301.329 358.693 299.53 358.693 297.449C358.693 295.368 359.068 293.569 359.82 292.053C360.571 290.538 361.602 289.368 362.913 288.546C364.223 287.724 365.72 287.313 367.403 287.313C368.398 287.313 369.333 287.458 370.207 287.747C371.087 288.036 371.88 288.46 372.586 289.018C373.293 289.571 373.884 290.245 374.359 291.042C374.835 291.832 375.162 292.734 375.342 293.749Z" fill="#131A2E"/>
<path d="M383.551 289.702V287.583H398.35V289.702H392.145V307.315H389.756V289.702H383.551Z" fill="#131A2E"/>
<path d="M420.522 307.315V287.583H427.189C428.737 287.583 430.003 287.862 430.986 288.421C431.975 288.973 432.707 289.722 433.182 290.666C433.658 291.61 433.895 292.664 433.895 293.826C433.895 294.989 433.658 296.046 433.182 296.996C432.713 297.947 431.988 298.705 431.005 299.27C430.022 299.829 428.763 300.108 427.228 300.108H422.449V297.989H427.151C428.211 297.989 429.062 297.806 429.704 297.439C430.346 297.073 430.812 296.579 431.101 295.956C431.397 295.326 431.544 294.616 431.544 293.826C431.544 293.036 431.397 292.33 431.101 291.707C430.812 291.084 430.343 290.595 429.694 290.242C429.046 289.882 428.185 289.702 427.112 289.702H422.911V307.315H420.522Z" fill="#131A2E"/>
<path d="M443.98 287.583L449.839 304.194H450.07L455.928 287.583H458.433L451.187 307.315H448.721L441.475 287.583H443.98Z" fill="#131A2E"/>
<path d="M465.854 289.702V287.583H480.653V289.702H474.448V307.315H472.059V289.702H465.854Z" fill="#131A2E"/>
<path d="M502.825 307.315V287.583H505.215V305.196H514.387V307.315H502.825Z" fill="#131A2E"/>
<path d="M519.811 289.702V287.583H534.611V289.702H528.406V307.315H526.016V289.702H519.811Z" fill="#131A2E"/>
<path d="M549.814 307.315H543.725V287.583H550.084C551.998 287.583 553.636 287.978 554.998 288.768C556.36 289.552 557.404 290.679 558.13 292.15C558.855 293.614 559.218 295.368 559.218 297.411C559.218 299.466 558.852 301.236 558.12 302.719C557.388 304.197 556.321 305.334 554.921 306.13C553.521 306.92 551.819 307.315 549.814 307.315ZM546.115 305.196H549.66C551.292 305.196 552.644 304.881 553.717 304.251C554.789 303.622 555.589 302.726 556.116 301.563C556.643 300.401 556.906 299.016 556.906 297.411C556.906 295.818 556.646 294.446 556.125 293.296C555.605 292.14 554.828 291.254 553.794 290.637C552.76 290.014 551.472 289.702 549.93 289.702H546.115V305.196Z" fill="#131A2E"/>
<path d="M227.897 77.1942C227.897 167.812 347.873 178.887 394.25 107.4C377.78 161.434 327.037 175.53 304.52 175.53C174.124 175.53 179.84 0 282.34 0C381.143 4.6987 362.324 142.975 276.291 116.125L272.594 66.453L299.143 54.3706L296.118 97.3301C321.66 97.3301 327.037 74.5079 327.037 62.7625C327.037 43.4747 307.052 23.4437 285.028 22.3396C257.999 20.9844 227.897 43.7202 227.897 77.1942Z" fill="url(#paint2_linear_54_985)"/>
<path d="M270.911 41.9526L272.594 61.4187L299.143 48.3294V41.9526H270.911Z" fill="url(#paint3_linear_54_985)"/>
<defs>
<linearGradient id="paint0_linear_54_985" x1="477.419" y1="188.322" x2="563.924" y2="290.38" gradientUnits="userSpaceOnUse">
<stop stop-color="#01FFFF"/>
<stop offset="1" stop-color="#001FFE"/>
</linearGradient>
<linearGradient id="paint1_linear_54_985" x1="477.419" y1="188.322" x2="563.924" y2="290.38" gradientUnits="userSpaceOnUse">
<stop stop-color="#01FFFF"/>
<stop offset="1" stop-color="#001FFE"/>
</linearGradient>
<linearGradient id="paint2_linear_54_985" x1="228.837" y1="17.1167" x2="367.788" y2="152.892" gradientUnits="userSpaceOnUse">
<stop stop-color="#01FFFF"/>
<stop offset="1" stop-color="#001FFE"/>
</linearGradient>
<linearGradient id="paint3_linear_54_985" x1="228.837" y1="17.1167" x2="367.788" y2="152.892" gradientUnits="userSpaceOnUse">
<stop stop-color="#01FFFF"/>
<stop offset="1" stop-color="#001FFE"/>
</linearGradient>
</defs>
</svg>
