<svg width="600" height="156" viewBox="0 0 600 156" fill="none" xmlns="http://www.w3.org/2000/svg">
<path d="M191.639 47.4083C189.75 47.4083 188.167 46.8211 186.891 45.6468C185.665 44.4213 185.053 42.9151 185.053 41.128C185.053 39.341 185.665 37.8603 186.891 36.6859C188.167 35.4605 189.75 34.8478 191.639 34.8478C193.529 34.8478 195.086 35.4605 196.311 36.6859C197.588 37.8603 198.226 39.341 198.226 41.128C198.226 42.9151 197.588 44.4213 196.311 45.6468C195.086 46.8211 193.529 47.4083 191.639 47.4083ZM196.924 52.4631V94.8932H186.202V52.4631H196.924Z" fill="#051B4D"/>
<path d="M231.03 51.8504C236.085 51.8504 240.17 53.4588 243.285 56.6755C246.399 59.8412 247.956 64.2833 247.956 70.0019V94.8932H237.234V71.4571C237.234 68.0872 236.392 65.5087 234.707 63.7217C233.022 61.8835 230.724 60.9645 227.814 60.9645C224.852 60.9645 222.504 61.8835 220.768 63.7217C219.083 65.5087 218.24 68.0872 218.24 71.4571V94.8932H207.518V52.4631H218.24V57.7477C219.67 55.9096 221.482 54.48 223.678 53.4588C225.924 52.3866 228.375 51.8504 231.03 51.8504Z" fill="#051B4D"/>
<path d="M270.637 61.2708V81.7965C270.637 83.2262 270.969 84.2729 271.632 84.9367C272.347 85.5494 273.522 85.8557 275.156 85.8557H280.134V94.8932H273.394C264.357 94.8932 259.838 90.5021 259.838 81.72V61.2708H254.783V52.4631H259.838V41.9705H270.637V52.4631H280.134V61.2708H270.637Z" fill="#051B4D"/>
<path d="M327.289 72.7591C327.289 74.2909 327.187 75.6695 326.983 76.8949H295.964C296.22 79.9584 297.292 82.3582 299.181 84.0942C301.07 85.8302 303.393 86.6982 306.151 86.6982C310.133 86.6982 312.967 84.9877 314.652 81.5668H326.217C324.991 85.6515 322.643 89.0214 319.171 91.6765C315.699 94.2805 311.435 95.5825 306.38 95.5825C302.296 95.5825 298.619 94.6889 295.352 92.9019C292.135 91.0638 289.607 88.4853 287.769 85.1664C285.982 81.8476 285.089 78.0182 285.089 73.6782C285.089 69.2871 285.982 65.4321 287.769 62.1133C289.556 58.7945 292.058 56.2415 295.275 54.4544C298.492 52.6674 302.193 51.7738 306.38 51.7738C310.414 51.7738 314.014 52.6418 317.179 54.3779C320.396 56.1139 322.872 58.5902 324.608 61.8069C326.395 64.9726 327.289 68.6233 327.289 72.7591ZM316.184 69.6956C316.133 66.9384 315.137 64.7428 313.197 63.1089C311.256 61.424 308.882 60.5815 306.074 60.5815C303.419 60.5815 301.172 61.3985 299.334 63.0324C297.547 64.6152 296.449 66.8363 296.041 69.6956H316.184Z" fill="#051B4D"/>
<path d="M345.838 59.0498C347.216 56.8032 349.003 55.0416 351.199 53.7651C353.446 52.4887 355.999 51.8504 358.858 51.8504V63.1089H356.024C352.654 63.1089 350.101 63.9004 348.365 65.4832C346.68 67.066 345.838 69.8232 345.838 73.7547V94.8932H335.115V52.4631H345.838V59.0498Z" fill="#051B4D"/>
<path d="M363.323 73.525C363.323 69.236 364.165 65.4321 365.85 62.1133C367.586 58.7945 369.909 56.2415 372.82 54.4544C375.781 52.6674 379.074 51.7738 382.7 51.7738C385.865 51.7738 388.622 52.4121 390.971 53.6886C393.371 54.965 395.286 56.5734 396.715 58.5136V52.4631H407.514V94.8932H396.715V88.6895C395.337 90.6808 393.422 92.3402 390.971 93.6678C388.571 94.9442 385.789 95.5825 382.623 95.5825C379.049 95.5825 375.781 94.6634 372.82 92.8253C369.909 90.9872 367.586 88.4087 365.85 85.0899C364.165 81.72 363.323 77.865 363.323 73.525ZM396.715 73.6782C396.715 71.0742 396.205 68.8531 395.184 67.015C394.162 65.1258 392.784 63.6961 391.048 62.726C389.312 61.7048 387.448 61.1942 385.457 61.1942C383.465 61.1942 381.627 61.6793 379.942 62.6494C378.257 63.6195 376.879 65.0492 375.807 66.9384C374.785 68.7765 374.275 70.972 374.275 73.525C374.275 76.0779 374.785 78.3245 375.807 80.2648C376.879 82.154 378.257 83.6091 379.942 84.6303C381.678 85.6515 383.517 86.1621 385.457 86.1621C387.448 86.1621 389.312 85.677 391.048 84.7069C392.784 83.6857 394.162 82.2561 395.184 80.418C396.205 78.5288 396.715 76.2822 396.715 73.6782Z" fill="#051B4D"/>
<path d="M415.229 73.6782C415.229 69.2871 416.123 65.4577 417.91 62.1899C419.697 58.871 422.173 56.3181 425.339 54.531C428.505 52.6929 432.13 51.7738 436.215 51.7738C441.474 51.7738 445.814 53.1014 449.235 55.7564C452.707 58.3605 455.03 62.0367 456.204 66.7852H444.639C444.027 64.9471 442.98 63.5174 441.499 62.4962C440.07 61.424 438.283 60.8879 436.138 60.8879C433.075 60.8879 430.649 62.0112 428.862 64.2578C427.075 66.4533 426.182 69.5934 426.182 73.6782C426.182 77.7118 427.075 80.852 428.862 83.0986C430.649 85.2941 433.075 86.3919 436.138 86.3919C440.478 86.3919 443.312 84.4516 444.639 80.5711H456.204C455.03 85.1664 452.707 88.8172 449.235 91.5233C445.763 94.2294 441.423 95.5825 436.215 95.5825C432.13 95.5825 428.505 94.6889 425.339 92.9019C422.173 91.0638 419.697 88.5108 417.91 85.243C416.123 81.9242 415.229 78.0692 415.229 73.6782Z" fill="#051B4D"/>
<path d="M476.543 61.2708V81.7965C476.543 83.2262 476.875 84.2729 477.539 84.9367C478.254 85.5494 479.428 85.8557 481.062 85.8557H486.04V94.8932H479.3C470.263 94.8932 465.744 90.5021 465.744 81.72V61.2708H460.689V52.4631H465.744V41.9705H476.543V52.4631H486.04V61.2708H476.543Z" fill="#051B4D"/>
<path d="M540.525 95.5824L528.96 77.5841L518.467 95.5824H506.366L523.216 68.6233L506.137 42.1237H518.467L530.032 60.0454L540.448 42.1237H552.549L535.776 69.0062L552.856 95.5824H540.525Z" fill="url(#paint0_linear_53_1001)"/>
<path d="M600 58.6668C600 61.5261 599.31 64.2067 597.932 66.7086C596.604 69.2105 594.485 71.2273 591.575 72.7591C588.715 74.2908 585.09 75.0567 580.699 75.0567H571.738V95.5824H561.016V42.1237H580.699C584.835 42.1237 588.358 42.8385 591.268 44.2681C594.179 45.6978 596.349 47.6636 597.778 50.1654C599.259 52.6673 600 55.5011 600 58.6668ZM580.24 66.4022C583.201 66.4022 585.397 65.7385 586.826 64.4109C588.256 63.0323 588.971 61.1176 588.971 58.6668C588.971 53.4588 586.06 50.8547 580.24 50.8547H571.738V66.4022H580.24Z" fill="url(#paint1_linear_53_1001)"/>
<path d="M189.415 106.597V120.244H187.763V106.597H189.415Z" fill="#03102E"/>
<path d="M207.303 106.597V120.244H205.704L198.267 109.529H198.134V120.244H196.481V106.597H198.081L205.544 117.339H205.677V106.597H207.303Z" fill="#03102E"/>
<path d="M213.616 108.063V106.597H223.851V108.063H219.56V120.244H217.907V108.063H213.616Z" fill="#03102E"/>
<path d="M230.154 120.244V106.597H238.39V108.063H231.807V112.674H237.964V114.14H231.807V118.778H238.497V120.244H230.154Z" fill="#03102E"/>
<path d="M245.122 120.244V106.597H249.733C250.799 106.597 251.674 106.779 252.358 107.143C253.042 107.503 253.549 107.999 253.877 108.629C254.206 109.26 254.371 109.978 254.371 110.782C254.371 111.586 254.206 112.299 253.877 112.921C253.549 113.543 253.045 114.031 252.365 114.387C251.685 114.738 250.817 114.913 249.759 114.913H246.028V113.42H249.706C250.435 113.42 251.021 113.314 251.465 113.101C251.914 112.887 252.238 112.585 252.438 112.194C252.643 111.799 252.745 111.328 252.745 110.782C252.745 110.235 252.643 109.758 252.438 109.349C252.234 108.94 251.907 108.625 251.459 108.403C251.01 108.176 250.417 108.063 249.68 108.063H246.774V120.244H245.122ZM251.545 114.113L254.904 120.244H252.985L249.68 114.113H251.545Z" fill="#03102E"/>
<path d="M269.161 108.063V106.597H279.396V108.063H275.105V120.244H273.452V108.063H269.161Z" fill="#03102E"/>
<path d="M285.699 120.244V106.597H293.935V108.063H287.352V112.674H293.509V114.14H287.352V118.778H294.042V120.244H285.699Z" fill="#03102E"/>
<path d="M311.648 110.862H309.995C309.898 110.386 309.727 109.969 309.482 109.609C309.242 109.249 308.949 108.947 308.603 108.703C308.261 108.454 307.881 108.267 307.463 108.143C307.046 108.019 306.61 107.956 306.157 107.956C305.331 107.956 304.583 108.165 303.912 108.583C303.245 109 302.715 109.616 302.319 110.429C301.928 111.242 301.733 112.239 301.733 113.42C301.733 114.602 301.928 115.599 302.319 116.412C302.715 117.225 303.245 117.841 303.912 118.258C304.583 118.676 305.331 118.884 306.157 118.884C306.61 118.884 307.046 118.822 307.463 118.698C307.881 118.573 308.261 118.389 308.603 118.145C308.949 117.896 309.242 117.592 309.482 117.232C309.727 116.868 309.898 116.45 309.995 115.979H311.648C311.524 116.677 311.297 117.301 310.968 117.852C310.64 118.402 310.231 118.871 309.742 119.258C309.254 119.64 308.705 119.931 308.096 120.131C307.492 120.33 306.846 120.43 306.157 120.43C304.993 120.43 303.958 120.146 303.052 119.577C302.146 119.009 301.433 118.2 300.913 117.152C300.393 116.104 300.134 114.86 300.134 113.42C300.134 111.981 300.393 110.737 300.913 109.689C301.433 108.641 302.146 107.832 303.052 107.263C303.958 106.695 304.993 106.411 306.157 106.411C306.846 106.411 307.492 106.51 308.096 106.71C308.705 106.91 309.254 107.203 309.742 107.59C310.231 107.972 310.64 108.438 310.968 108.989C311.297 109.536 311.524 110.16 311.648 110.862Z" fill="#03102E"/>
<path d="M318.071 120.244V106.597H319.724V112.674H327V106.597H328.653V120.244H327V114.14H319.724V120.244H318.071Z" fill="#03102E"/>
<path d="M346.397 106.597V120.244H344.744V106.597H346.397Z" fill="#03102E"/>
<path d="M364.284 106.597V120.244H362.685L355.249 109.529H355.115V120.244H353.463V106.597H355.062L362.525 117.339H362.658V106.597H364.284Z" fill="#03102E"/>
<path d="M370.598 108.063V106.597H380.833V108.063H376.541V120.244H374.889V108.063H370.598Z" fill="#03102E"/>
<path d="M387.136 120.244V106.597H395.372V108.063H388.788V112.674H394.945V114.14H388.788V118.778H395.478V120.244H387.136Z" fill="#03102E"/>
<path d="M402.103 120.244V106.597H406.714C407.78 106.597 408.656 106.779 409.34 107.143C410.024 107.503 410.53 107.999 410.859 108.629C411.188 109.26 411.352 109.978 411.352 110.782C411.352 111.586 411.188 112.299 410.859 112.921C410.53 113.543 410.026 114.031 409.346 114.387C408.667 114.738 407.798 114.913 406.741 114.913H403.009V113.42H406.688C407.416 113.42 408.003 113.314 408.447 113.101C408.895 112.887 409.22 112.585 409.42 112.194C409.624 111.799 409.726 111.328 409.726 110.782C409.726 110.235 409.624 109.758 409.42 109.349C409.215 108.94 408.889 108.625 408.44 108.403C407.991 108.176 407.398 108.063 406.661 108.063H403.756V120.244H402.103ZM408.527 114.113L411.885 120.244H409.966L406.661 114.113H408.527Z" fill="#03102E"/>
<path d="M418.418 120.244H416.686L421.697 106.597H423.403L428.413 120.244H426.681L422.603 108.756H422.496L418.418 120.244ZM419.058 114.913H426.041V116.379H419.058V114.913Z" fill="#03102E"/>
<path d="M444.632 110.862H442.979C442.882 110.386 442.711 109.969 442.466 109.609C442.226 109.249 441.933 108.947 441.587 108.703C441.245 108.454 440.865 108.267 440.447 108.143C440.03 108.019 439.594 107.956 439.141 107.956C438.315 107.956 437.566 108.165 436.896 108.583C436.229 109 435.698 109.616 435.303 110.429C434.912 111.242 434.717 112.239 434.717 113.42C434.717 114.602 434.912 115.599 435.303 116.412C435.698 117.225 436.229 117.841 436.896 118.258C437.566 118.676 438.315 118.884 439.141 118.884C439.594 118.884 440.03 118.822 440.447 118.698C440.865 118.573 441.245 118.389 441.587 118.145C441.933 117.896 442.226 117.592 442.466 117.232C442.711 116.868 442.882 116.45 442.979 115.979H444.632C444.507 116.677 444.281 117.301 443.952 117.852C443.623 118.402 443.215 118.871 442.726 119.258C442.237 119.64 441.689 119.931 441.08 120.131C440.476 120.33 439.83 120.43 439.141 120.43C437.977 120.43 436.942 120.146 436.036 119.577C435.13 119.009 434.417 118.2 433.897 117.152C433.377 116.104 433.117 114.86 433.117 113.42C433.117 111.981 433.377 110.737 433.897 109.689C434.417 108.641 435.13 107.832 436.036 107.263C436.942 106.695 437.977 106.411 439.141 106.411C439.83 106.411 440.476 106.51 441.08 106.71C441.689 106.91 442.237 107.203 442.726 107.59C443.215 107.972 443.623 108.438 443.952 108.989C444.281 109.536 444.507 110.16 444.632 110.862Z" fill="#03102E"/>
<path d="M450.309 108.063V106.597H460.544V108.063H456.253V120.244H454.6V108.063H450.309Z" fill="#03102E"/>
<path d="M475.877 120.244V106.597H480.488C481.559 106.597 482.434 106.79 483.114 107.177C483.798 107.559 484.304 108.076 484.633 108.729C484.962 109.382 485.126 110.111 485.126 110.915C485.126 111.719 484.962 112.45 484.633 113.107C484.309 113.765 483.807 114.289 483.127 114.68C482.447 115.066 481.577 115.26 480.515 115.26H477.21V113.794H480.462C481.195 113.794 481.783 113.667 482.228 113.414C482.672 113.161 482.994 112.819 483.194 112.388C483.398 111.952 483.5 111.461 483.5 110.915C483.5 110.369 483.398 109.88 483.194 109.449C482.994 109.018 482.67 108.681 482.221 108.436C481.772 108.187 481.177 108.063 480.435 108.063H477.53V120.244H475.877Z" fill="#03102E"/>
<path d="M492.101 106.597L496.152 118.085H496.312L500.363 106.597H502.096L497.085 120.244H495.379L490.368 106.597H492.101Z" fill="#03102E"/>
<path d="M507.228 108.063V106.597H517.463V108.063H513.172V120.244H511.519V108.063H507.228Z" fill="#03102E"/>
<path d="M532.797 120.244V106.597H534.449V118.778H540.793V120.244H532.797Z" fill="#03102E"/>
<path d="M544.544 108.063V106.597H554.779V108.063H550.488V120.244H548.835V108.063H544.544Z" fill="#03102E"/>
<path d="M565.293 120.244H561.082V106.597H565.48C566.804 106.597 567.937 106.87 568.878 107.417C569.82 107.959 570.542 108.738 571.044 109.756C571.546 110.768 571.797 111.981 571.797 113.394C571.797 114.815 571.544 116.039 571.037 117.065C570.531 118.087 569.793 118.873 568.825 119.424C567.857 119.971 566.679 120.244 565.293 120.244ZM562.735 118.778H565.187C566.315 118.778 567.25 118.56 567.992 118.125C568.734 117.689 569.287 117.07 569.651 116.266C570.016 115.462 570.198 114.504 570.198 113.394C570.198 112.292 570.018 111.344 569.658 110.549C569.298 109.749 568.761 109.136 568.045 108.709C567.33 108.279 566.439 108.063 565.373 108.063H562.735V118.778Z" fill="#03102E"/>
<path d="M19.3441 68.2059C19.3441 148.272 125.256 158.058 166.197 94.8948C151.658 142.637 106.863 155.092 86.9855 155.092C-28.126 155.092 -23.0801 0 67.4051 0C154.627 4.1516 138.013 126.327 62.0649 102.604L58.8015 58.7154L82.2387 48.0399L79.5686 85.9973C102.116 85.9973 106.863 65.8325 106.863 55.4546C106.863 38.4127 89.2206 20.714 69.7784 19.7384C45.9171 18.5411 19.3441 38.6295 19.3441 68.2059Z" fill="url(#paint2_linear_53_1001)"/>
<path d="M57.3158 37.0678L58.8015 54.2673L82.2387 42.7021V37.0678H57.3158Z" fill="url(#paint3_linear_53_1001)"/>
<defs>
<linearGradient id="paint0_linear_53_1001" x1="515.225" y1="37.9505" x2="575.05" y2="108.532" gradientUnits="userSpaceOnUse">
<stop stop-color="#01FFFF"/>
<stop offset="1" stop-color="#001FFE"/>
</linearGradient>
<linearGradient id="paint1_linear_53_1001" x1="515.225" y1="37.9505" x2="575.05" y2="108.532" gradientUnits="userSpaceOnUse">
<stop stop-color="#01FFFF"/>
<stop offset="1" stop-color="#001FFE"/>
</linearGradient>
<linearGradient id="paint2_linear_53_1001" x1="20.1737" y1="15.1237" x2="142.944" y2="134.981" gradientUnits="userSpaceOnUse">
<stop stop-color="#01FFFF"/>
<stop offset="1" stop-color="#001FFE"/>
</linearGradient>
<linearGradient id="paint3_linear_53_1001" x1="20.1737" y1="15.1237" x2="142.944" y2="134.981" gradientUnits="userSpaceOnUse">
<stop stop-color="#01FFFF"/>
<stop offset="1" stop-color="#001FFE"/>
</linearGradient>
</defs>
</svg>
